<?xml version="1.0" encoding="UTF-8"?><svg id="a" xmlns="http://www.w3.org/2000/svg" viewBox="0 0 773.14 672.58"><path d="M383.88,359.92c26.65-21.16,56.44-41.08,89.7-58.77,54.71-29.1,113.02-49.25,174.11-60.27-.14-.4-.27-.81-.41-1.21-1.35-3.88-2.79-7.73-4.3-11.53-40.62-101.89-138.95-174.51-254.61-177.44-2.42-.06-4.84-.09-7.27-.09s-4.86,.03-7.27,.09c-126.53,3.2-232.31,89.8-264.49,206.88,124.84,15.15,221.3,66.95,274.57,102.3l-.03,.04Z" style="fill:#f4e8e8;"/><path d="M662.8,323.83c-.1-3.48-.27-6.95-.5-10.4-1.45-21.7-5.35-42.73-11.44-62.8-.99-3.28-2.05-6.52-3.16-9.75-61.09,11.01-119.4,31.17-174.11,60.27-33.27,17.69-63.05,37.61-89.7,58.77l-5.59,8.42c-.87-.58-1.76-1.17-2.66-1.75-77.2,63.6-126.92,137.33-157.5,195.81,2.78,1.97,5.6,3.88,8.45,5.75,11.5,7.55,23.58,14.31,36.17,20.14,4.26,1.98,8.58,3.85,12.96,5.61,6.86,2.77,13.85,5.27,20.97,7.5,3.31,1.04,6.65,2.01,10.01,2.93,4.14,1.13,8.31,2.18,12.53,3.12,3.99,.89,8.01,1.72,12.07,2.44,12.53,2.24,25.36,3.62,38.41,4.14,3.79,.15,7.59,.25,11.41,.25,.69,0,1.38-.02,2.07-.03,20.71-.15,40.88-2.53,60.3-6.91,3.65-.82,7.27-1.73,10.87-2.69,110.93-29.77,194.84-125.53,207.06-242.62,.39-3.7,.69-7.43,.93-11.17,.39-6.09,.61-12.22,.61-18.41,0-2.88-.06-5.75-.15-8.62Z" style="fill:#c185a3;"/><path d="M109.34,257.59c-.9,3.28-1.74,6.6-2.52,9.93-2.07,8.8-3.75,17.75-4.98,26.84-.6,4.43-1.09,8.9-1.48,13.39-.71,8.14-1.09,16.38-1.09,24.71,0,24.57,3.15,48.41,9.06,71.14,1.19,4.57,2.49,9.1,3.9,13.58,18.65,59.25,56.35,110.04,105.9,145.23,30.58-58.48,80.3-132.21,157.5-195.81,2.71-2.24,5.47-4.46,8.25-6.67l.03-.04c-53.26-35.35-149.73-87.15-274.57-102.3Z" style="fill:#5b0830;"/><path d="M378.3,368.34l5.59-8.42c-2.78,2.21-5.53,4.43-8.25,6.67,.9,.59,1.79,1.17,2.66,1.75Z" style="fill:#5a9e5a;"/><g><path d="M293.71,481.52c-7.71-1.29-13.41-6.03-18.89-11.12-.48-.45-.87-.99-1.3-1.48,.27-5.09,.72-10.17,.75-15.26,.04-5.74-.47-11.42-5.69-15.26-1.54-1.13-3.09-2.25-4.63-3.38,1.26-3.89,4.1-6.62,6.94-9.3,1.3-1.23,2.93-2.12,4.41-3.17,.87-.19,1.74-.39,2.61-.58,1.44-.18,2.89-.36,4.33-.54l5.28,2.25c-.22,1.72-.63,3.43-.62,5.15,.06,7.96,4.4,14.1,9.58,19.35,4.72,4.79,10.98,7.59,17.49,9.53,1.9,9.41-.6,15.45-8.55,20.73-.26,.18-.48,.42-.72,.64l-10.98,2.46Z" style="fill:#7e3758;"/><path d="M127.38,227.8l-.3,.48,.3-.48Z" style="fill:#fefefe;"/><path d="M188.88,504.56l.48,.3-.48-.3Z" style="fill:#fefefe;"/><path d="M313.96,457.7c-6.51-1.94-12.77-4.74-17.49-9.53-5.17-5.25-9.51-11.38-9.58-19.35-.01-1.71,.4-3.43,.62-5.15,.26-.52,.52-1.04,.78-1.56,.6-1.48,1.19-2.97,1.79-4.45,.81-1.54,1.61-3.09,2.49-4.76-2.43,1.41-4.69,2.73-6.96,4.04-2.38,.56-4.76,1.11-7.14,1.67-1.05,.15-2.11,.3-3.16,.45-1.31-.37-2.68-.58-3.91-1.14-9.26-4.22-17.85-9.23-22.16-19.17-1.68-5.02-3.53-10-4.97-15.09-1-3.57-1.42-7.3-2.1-10.96,.12-1.08,.2-2.18,.37-3.25,.76-4.75,1.55-9.49,2.33-14.23,1.1-1.26,2.2-2.53,3.29-3.79l9.83-5c1.5-.32,3-.64,4.51-.97l6.03,.18c2.25,.71,4.66,1.13,6.73,2.19,5.02,2.59,8.96,6.49,12.18,11.13,.02,.06,.06,.11,.06,.17,0,.11-.03,.22-.05,.33l.95,1.24,.6,.13c.75,1.36,1.39,2.79,2.26,4.06,2.7,3.96,4.9,8.19,5.55,12.93,.7,5.13,1.13,10.33,1.13,15.5,0,4.14-.64,8.32-1.39,12.41-.37,2.02-1.65,3.88-2.52,5.84,.15-.03,.37-.02,.5-.12,4.36-3.77,9.43-5.11,15.08-4.3,2.68,.38,5.33,.94,7.99,1.42l2,.73c1.25,.55,2.49,1.09,3.74,1.64l-.03-.02c1.51,1.66,2.99,3.39,5.61,2.94l.9,.6c.15,.46,.31,.92,.5,1.5l1.14-.42v.07c.16,.12,.32,.23,.49,.35v-.03c.6,1.66,1.14,3.4,3.51,2.95l-.06,.02c.17,.12,.34,.25,.52,.37l-.03-.03c.43,.72,.86,1.45,1.29,2.17,1.29,2.17,2.76,4.25,3.83,6.52,1.72,3.66,2.28,7.6,1.83,11.64-.26,2.3-.67,4.59-1.01,6.88l-.79-.08,.51,1.5v-.04c-.1,.18-.19,.36-.28,.55l.03,.06c-.62-.08-1.25-.16-2.3-.29l.85,2.64h-.09c-.12,.16-.24,.31-.36,.47h.03c-.65,.7-1.3,1.4-1.95,2.11h-.09c-1.11,.49-2.27,.9-3.33,1.48-1.29,.71-2.5,1.56-3.75,2.34-4.59,1.53-9.24,1.91-13.98,.77-.76-.18-1.56-.19-2.35-.28Z" style="fill:#933f65;"/><path d="M148.92,321.67l-.31-.55-.48-.83c-.96-4.82-1.91-9.63-2.87-14.45,1.13-5.93,3.16-11.41,7.92-15.47,1.25-1.07,2.68-1.93,4.03-2.89l2.16-1.37,.16-.02c1.76-.65,3.48-1.48,5.3-1.9,4.77-1.11,9.49-2.8,14.54-1.9,.22,.04,.53-.48,.8-.74,.16-.04,.32-.09,.47-.13,.12-.04,.23-.08,.35-.12,.12,0,.24,0,.36-.03,3.86,1.39,7.73,2.77,11.56,4.15-.64-1.87-1.56-4.06-2.13-6.34-2.33-9.24-3.59-18.58-1.24-27.99,.79-3.15,2.37-6.11,3.58-9.16,1.53-.51,2.92-2.97,2.51-4.45l.07-.04c.54-.16,1.23-.17,1.59-.52,2.07-2.03,4.46-3.39,7.07-4.73,3.7-1.91,7.08-1.53,10.71-.66,2.4,.57,4.78,1.21,7.16,1.81,.12,.06,.23,.11,.35,.17,.42,.72,.85,1.43,1.32,2.23l1.73,.14h-.02c.3,.55,.57,1.14,.92,1.67,1.34,2.02,3.24,3.86,3.97,6.08,1.9,5.81,3.29,11.79,4.89,17.71,.13,1.1,.25,2.2,.38,3.3-.12-.27-.25-.53-.37-.8l-.34,.14,.99,2.56c-.03,3.12-.05,6.24-.08,9.35,0,.71,0,1.42,0,2.13-.3,1.36-.59,2.72-.89,4.08-.4,.48-.82,.95-1.21,1.44-1.65,2.03-3.29,4.07-4.94,6.11l-1.69,1.5c-10.43,8.26-20.66,7.54-30.79-.91,2.26,4.12,2.6,8.44,2.91,12.78-1.19,6.44-1.8,13.07-6.14,18.47l.02-.04-.26,.33c-2.69,3.04-5.43,6.01-9.67,6.87-1.98,.7-3.95,1.45-5.95,2.07-1.08,.34-2.21,.57-3.33,.66-3.05,.26-6.11,.42-9.17,.61-5.86-.58-10.15-3.97-14.08-7.96-.69-.7-1.24-1.56-1.85-2.34Z" style="fill:#933f66;"/><path d="M317.59,408.57c-2.66-.48-5.32-1.04-7.99-1.42-5.65-.81-10.72,.53-15.08,4.3-.12,.1-.35,.09-.5,.12,.87-1.95,2.15-3.81,2.52-5.84,.75-4.09,1.39-8.27,1.39-12.41,0-5.17-.43-10.37-1.13-15.5-.65-4.74-2.85-8.97-5.55-12.93-.87-1.27-1.51-2.7-2.26-4.06,1.55,.1,3.11,.2,4.66,.3l.05-.26c-2.09-.64-4.18-1.27-6.27-1.91-3.21-4.64-7.15-8.54-12.18-11.13-2.07-1.07-4.48-1.48-6.73-2.19-.48-.71-1.04-1.39-1.44-2.14-3.85-7.3-5.89-14.74-1.74-22.68,.54-1.03,.75-2.24,1.11-3.37l2.92-3.47,.48-.62,1.65-1.53,6.22-4.76c4.65-.08,9.31-.16,13.96-.24,.47,.29,.9,.69,1.41,.84,1.46,.43,2.94,.77,4.42,1.14h-.02c2.43,.95,4.86,1.88,7.27,2.87,1.15,.48,2.27,1.06,3.36,1.66,1.17,.64,2.3,1.35,3.45,2.04l.34-.55c1.38,1.16,2.77,2.32,4.65,3.9-.05-.1,.2,.43,.56,1.19l2.26,.02-.03-.02c1.07,1.83,2.08,3.69,3.24,5.46,.9,1.38,1.99,2.63,3,3.94l.02,.13c.33,1.28,.4,2.72,1.04,3.82,2.16,3.68,2.18,7.49,1.36,11.45l-1.84,.63,1.82,1.68v.02c-.38-.01-.76-.02-1.31-.04l.21,2.36-.14,.02h.14c-.62,.31-1.36,.51-1.83,.98-1.01,1.01-1.87,2.16-2.76,3.22-.24-.02,.13,0,.29,.02-.59,1.28-1.04,2.26-1.5,3.25v-.07c-.13,.15-.28,.3-.42,.46l.02-.02c-.65,.07-1.31,.14-1.96,.2l.27,.35-5.29,3.45-4.62,1.34c-2.96-.09-5.93-.19-8.89-.28-.16,.02-.32,.04-.56,.06l.33,.25c6.74,2.24,13.36,4.85,18.96,9.29,2.98,2.36,5.38,5.45,8.04,8.21-.03,.09-.07,.18-.1,.28,.1,.04,.19,.07,.29,.1v.13c.85,2.64,1.69,5.29,2.54,7.93,.01,1,.03,1.99,.04,2.99l.07,.1c-.17,.79-.35,1.58-.52,2.37-1.23,6.37-5.02,10.78-10.57,13.84-.4,.22-.79,.47-1.18,.71Z" style="fill:#7e3757;"/><path d="M291.71,306.84c-4.65,.08-9.31,.16-13.96,.24-1.41-.33-2.92-.46-4.22-1.04-6-2.64-9.34-7.35-10.67-13.73-.59-2.82-1.75-5.51-2.65-8.27-.21-1.24-.5-2.48-.62-3.73-.9-9.21,4.8-14.21,11.77-18.38,.7-.26,1.43-.45,2.08-.79,2.25-1.18,4.39-2.58,6.71-3.6,5.73-2.53,11.9-2.56,18.01-2.85l5.75-.05c5.97,.01,10.57,3.18,15.06,6.58,.59,.49,1.18,.99,1.76,1.48l-.1,.08,.09-.1c.89,1.55,1.71,3.15,2.68,4.65,2.27,3.5,4.11,7.04,2.68,11.43-.24,.75,.17,1.72,.29,2.59-1.72,6.94-6.21,11.96-11.63,16.2-2.12,1.66-4.69,2.74-7.05,4.09-.52,.12-1.12,.1-1.54,.38-4.38,2.91-9.47,3.69-14.44,4.82Z" style="fill:#933f66;"/><path d="M227.23,291.13c.56-.5,1.13-1,1.69-1.5,.2,.14,.42,.44,.58,.4,4.02-.87,8.03-1.77,12.15-2.69l.17-5.29-6.75,.04c.3-1.36,.59-2.72,.89-4.08,2.32-.19,4.64-.39,7.18-.6,1.42-6.69,2.84-13.32,4.22-19.97,.48-2.29,.64-4.66,1.33-6.87,2.58-8.31,2.07-16.95,2.88-25.45,.15-1.59,.31-3.19,.56-4.77,.42-2.59,2.02-3.54,4.46-2.42,2.23,1.03,4.32,2.39,6.61,3.68-.52,1.26-.88,2.48-1.49,3.56-3.63,6.3-5.28,13.24-6.57,20.29-2.26,12.36-4.46,24.72-6.65,37.09-.26,1.5-.29,3.04-.49,5.2,3.95-.78,7.58-1.5,11.22-2.23-.54,1.13-1.09,2.26-1.63,3.39-3.12,.53-6.24,1.07-9.68,1.66,.47,.76,.74,1.66,1.35,2.12,2.11,1.57,4.33,2.99,6.51,4.46,.38,1.71,.77,3.43,1.15,5.14l.03,.56c-2.68-1.85-5.36-3.71-8.27-5.73l-.54,4.65c-1.28-.28-2.56-.56-3.84-.85-.13-.5-.27-1.01-.4-1.51-.29-2.74-.59-5.48-.9-8.38-5.75,1.93-10.97,4.15-16.76,3.13l1-3.02Z" style="fill:#a09e58;"/><path d="M193.12,241.92c-1.22,3.05-2.8,6-3.58,9.16-2.35,9.41-1.09,18.76,1.24,27.99,.57,2.28,1.49,4.46,2.13,6.34-3.83-1.37-7.7-2.76-11.56-4.15-.45-1.25-.9-2.49-1.57-4.37,0,.16,.24-.55,0-.94-3.11-4.96-3.21-10.59-3.68-16.13-.1-1.14,.31-2.32,.39-3.49,.07-1,.02-2.01,.02-3.01l.02-.09c2.14-.57,1.78-2.31,1.81-3.87h0l.31-.45c2.95-4.39,7.24-6.64,12.29-7.65,.73,.22,1.45,.44,2.18,.66Z" style="fill:#71314c;"/><path d="M257.59,288.89c.54-1.13,1.09-2.26,1.63-3.39,.33-.49,.66-.97,.99-1.46,.9,2.75,2.06,5.45,2.65,8.27,1.33,6.38,4.67,11.09,10.67,13.73,1.31,.58,2.81,.7,4.22,1.04-2.03,1.55-4.07,3.11-6.22,4.76-.46,.43-1.06,.98-1.65,1.53l-1.48-.38c-2.39-1.02-4.78-2.03-7.17-3.05l-2.56-3.3c-.67-3.07-1.35-6.14-2.02-9.21l-.1-.4,1.05-8.13Z" style="fill:#71314c;"/><path d="M291.71,306.84c4.97-1.13,10.06-1.91,14.44-4.82,.41-.28,1.02-.26,1.54-.38-2.34,1.61-4.69,3.21-7.02,4.84-1.07,.75-2.09,1.55-3.13,2.33-1.47-.37-2.96-.71-4.42-1.14-.51-.15-.94-.55-1.41-.84Z" style="fill:#71354f;"/><path d="M319.43,319.96l-2.26-.02c-.35-.75-.6-1.29-.56-1.19-1.88-1.58-3.27-2.74-4.65-3.9l-.34,.55c-1.15-.68-2.28-1.4-3.45-2.04-1.1-.6-2.21-1.19-3.36-1.66-2.41-1-4.85-1.92-7.27-2.88,8.61,1.14,15.81,5.05,21.91,11.15Z" style="fill:#71354f;"/><path d="M341.54,447.89l-.51-1.5,.79,.08c.34-2.29,.75-4.58,1.01-6.88,.45-4.03-.11-7.97-1.83-11.64-1.07-2.27-2.54-4.35-3.83-6.52-.43-.72-.86-1.45-1.29-2.17,3.7,2.7,5.62,6.56,6.61,10.86,.64,2.78,.84,5.67,1.23,8.5l-.07,.65-2.12,8.62Z" style="fill:#81445c;"/><path d="M176.5,253.32c0,1,.06,2.01-.02,3.01-.08,1.17-.49,2.35-.39,3.49,.46,5.54,.57,11.17,3.68,16.13,.25,.4,0,1.1,0,.94,.68,1.88,1.12,3.13,1.57,4.37-.12,.03-.24,.04-.36,.04-.18-.22-.35-.45-.53-.67-2.79-6.62-5.24-13.34-5.09-20.66,.05-2.22,.73-4.43,1.13-6.64Z" style="fill:#64394a;"/><path d="M222.22,233.33c-2.39-.61-4.77-1.24-7.16-1.81-3.62-.87-7.01-1.25-10.71,.66-2.61,1.34-5,2.7-7.07,4.73-.36,.35-1.05,.36-1.59,.52,2.91-2.03,5.81-4.06,8.72-6.08l.72-.25c6.13-2.57,11.63-.33,17.09,2.23Z" style="fill:#81445c;"/><path d="M298.16,254.69c-6.11,.29-12.28,.31-18.01,2.85-2.31,1.02-4.46,2.42-6.71,3.6-.65,.34-1.39,.53-2.08,.79,7.86-6.23,16.92-8.26,26.73-7.69l.07,.45Z" style="fill:#8d4e67;"/><path d="M180.16,281.54c-.27,.26-.58,.78-.8,.74-5.05-.9-9.77,.79-14.54,1.9-1.81,.42-3.53,1.26-5.3,1.9,6.36-3.89,13.24-5.38,20.64-4.54Z" style="fill:#81445c;"/><path d="M235.39,261.32c-1.6-5.91-2.99-11.9-4.89-17.71-.73-2.22-2.63-4.05-3.97-6.08-.35-.53-.62-1.12-.92-1.68,5.59,4.6,7.36,11.09,8.69,17.75,.51,2.54,.74,5.14,1.09,7.71Z" style="fill:#8d4e67;"/><path d="M328.04,347.04l-1.82-1.68,1.84-.63c.82-3.96,.81-7.77-1.36-11.45-.65-1.1-.71-2.53-1.04-3.82,3.71,5.46,4.7,11.3,2.38,17.58Z" style="fill:#71354f;"/><path d="M326.38,281.36c-.11-.87-.53-1.84-.29-2.59,1.43-4.39-.4-7.93-2.68-11.43-.97-1.5-1.79-3.1-2.68-4.65,5.16,4.17,7.68,12.53,5.65,18.67Z" style="fill:#81445c;"/><path d="M321.14,356.87c.45-.98,.91-1.97,1.5-3.25-.15-.01-.52-.04-.29-.02,.9-1.06,1.76-2.21,2.76-3.22,.47-.47,1.21-.66,1.83-.98-1.94,2.49-3.87,4.98-5.81,7.47Z" style="fill:#71354f;"/><path d="M325.64,329.34c-1.01-1.31-2.1-2.56-3-3.94-1.16-1.77-2.17-3.64-3.24-5.46,2.08,3.13,4.16,6.27,6.24,9.4Z" style="fill:#71354f;"/><path d="M313.76,361.25l5.29-3.45-.27-.35c.65-.07,1.31-.14,1.96-.2-2.3,1.43-4.61,2.86-6.91,4.3-.02-.1-.05-.19-.07-.29Z" style="fill:#71354f;"/><path d="M193.12,241.92c-.73-.22-1.45-.44-2.18-.66l2.39-.53c.79-1.13,1.54-2.19,2.29-3.25,.41,1.47-.98,3.94-2.51,4.45Z" style="fill:#81445c;"/><path d="M330.29,457.2c1.25-.79,2.46-1.64,3.75-2.34,1.06-.58,2.22-.99,3.33-1.47-2.36,1.27-4.72,2.55-7.08,3.82Z" style="fill:#81445c;"/><path d="M329.75,388.56c-.85-2.64-1.69-5.29-2.54-7.93,.95,2.62,1.89,5.24,2.84,7.86-.1,.02-.19,.04-.29,.08h-.01Z" style="fill:#71354f;"/><path d="M328.91,413.87c-2.62,.44-4.1-1.28-5.61-2.94,1.87,.98,3.74,1.96,5.61,2.94Z" style="fill:#81445c;"/><path d="M335.45,418.89c-2.37,.45-2.91-1.29-3.51-2.95,1.17,.98,2.34,1.96,3.51,2.95Z" style="fill:#81445c;"/><path d="M298.16,254.69l-.07-.45c.43,0,.86,.01,1.28,.01,.24,0,.48,.01,.72,.02l3.81,.36c-1.92,.02-3.84,.03-5.75,.05Z" style="fill:#824f63;"/><path d="M178.34,249.36c-.04,1.56,.32,3.3-1.81,3.87,.6-1.29,1.21-2.58,1.81-3.87Z" style="fill:#64394a;"/><path d="M339.83,450.8l-.85-2.64c1.06,.13,1.68,.21,2.3,.29-.48,.78-.97,1.56-1.45,2.35Z" style="fill:#81445c;"/><path d="M225.62,235.87l-1.73-.14c-.47-.8-.9-1.52-1.32-2.23,1.02,.79,2.03,1.58,3.05,2.37Z" style="fill:#8d4e67;"/><path d="M323.33,410.94c-1.25-.55-2.49-1.09-3.74-1.64l3.74,1.64Z" style="fill:#81445c;"/><path d="M326.95,349.39l-.21-2.36c.55,.02,.93,.03,1.31,.04-.37,.77-.73,1.55-1.1,2.32Z" style="fill:#71354f;"/><path d="M337.46,453.38c.65-.7,1.3-1.4,1.95-2.1-.65,.7-1.3,1.4-1.95,2.1Z" style="fill:#81445c;"/><path d="M313.76,361.25c.02,.1,.05,.19,.07,.29l-4.68,1.05,4.62-1.34Z" style="fill:#64394a;"/><path d="M159.37,286.1l-2.16,1.37,2.16-1.37Z" style="fill:#81445c;"/><path d="M329.79,391.55c-.01-1-.03-1.99-.04-2.99h.01l.25,.55-.22,2.44Z" style="fill:#71354f;"/><path d="M329.34,394.03c.17-.79,.35-1.58,.52-2.37-.17,.79-.35,1.58-.52,2.37Z" style="fill:#71354f;"/><path d="M331.46,415.55l-1.14,.42c-.19-.58-.35-1.04-.5-1.5l1.65,1.09Z" style="fill:#81445c;"/><path d="M320.75,262.71c-.59-.49-1.18-.99-1.76-1.48l1.76,1.48Z" style="fill:#81445c;"/><path d="M236.04,266.52l-.99-2.56,.34-.14c.12,.27,.25,.53,.37,.8,.09,.63,.18,1.26,.28,1.9Z" style="fill:#71354f;"/><path d="M300.1,254.28c-.24,0-.48-.01-.72-.02,.24,0,.48,.01,.72,.02Z" style="fill:#8d4e67;"/><path d="M180.46,280.62c.18,.23,.35,.45,.53,.67-.12,.04-.23,.08-.35,.12-.06-.26-.12-.53-.18-.79Z" style="fill:#81445c;"/><path d="M205.14,231.1l-.72,.25,.72-.25Z" style="fill:#8d4e67;"/><path d="M330.02,389.12l-.25-.55c.09-.03,.19-.06,.29-.08l-.04,.63Z" style="fill:#8d4e67;"/><path d="M327.21,380.5c-.1-.03-.19-.07-.29-.1,.03-.09,.06-.18,.1-.28l.19,.38Z" style="fill:#71354f;"/><path d="M331.94,415.98c-.16-.12-.33-.23-.49-.35,.16,.12,.33,.23,.49,.35Z" style="fill:#81445c;"/><path d="M335.91,419.29c-.17-.12-.34-.25-.52-.37,.17,.12,.34,.25,.52,.37Z" style="fill:#81445c;"/><path d="M343.66,439.26l.07-.65-.07,.65Z" style="fill:#8d4e67;"/><path d="M178.65,248.91l-.31,.45,.31-.45Z" style="fill:#64394a;"/><path d="M341.25,448.39c.09-.18,.18-.36,.27-.55-.09,.18-.18,.36-.27,.55Z" style="fill:#81445c;"/><path d="M339.38,451.27c.12-.16,.24-.32,.36-.48-.12,.16-.24,.32-.36,.48Z" style="fill:#81445c;"/><path d="M320.72,357.26c.14-.15,.28-.3,.43-.46-.14,.15-.28,.3-.43,.46Z" style="fill:#71354f;"/><path d="M183.31,328.62c4.24-.86,6.98-3.83,9.67-6.87,.09-.11,.17-.22,.26-.33l-.02,.04c2.37-.44,4.74-.89,7.11-1.33-.13,.3-.36,.6-.38,.91-.31,5.66-.8,11.32-.84,16.99-.04,5.8,5.74,12.54,10.17,13.86,4.26,1.27,8.33,1.09,12.52,.35-1.66,4.6-3.32,9.21-4.98,13.81l-.92,1.37,1.46-1.06c1.65-.53,3.3-1.06,4.95-1.59l8.29,.17c4.94,.97,8.45,4.08,11.59,7.75,.68,3.66,1.1,7.39,2.1,10.96,1.43,5.09,3.29,10.07,4.97,15.09-.37,2.08-.72,4.16-1.12,6.24-.8,4.15-1.14,8.4-3.55,12.14-1.49,2.32-2.43,4.99-3.62,7.51-.38,.05-.87-.05-1.12,.16-4.77,4.07-10.51,5.53-16.53,5.51-6.97-.02-10.87-4.84-14.2-10.21-.03-.42,.08-.92-.11-1.26-3.09-5.45-4.96-11.33-6.15-17.45-.08-.42-.42-.79-.63-1.18-.91-7.03-1.63-14.05,1.94-20.67l.42-.62-.23-.13-.25,.42c-4.12,2.17-8.15,4.45-12.93,5.1-7.75,1.06-15.79-3.82-18.13-11.32-.62-2.76-1.24-5.52-1.87-8.29l-.07-.85c.22-2.07,.51-4.13,.63-6.2,.15-2.54,.16-5.09,.23-7.63l-.03,.03c.17-.58,.34-1.16,.52-1.73v.02l.97-2.93c1.59-3.3,3.19-6.61,4.78-9.91l.84-1.14,.03-.04c.35-.08,.69-.16,1.18-.26l-.39-.76c0-.1,.06-.16,.15-.18,1.1-.73,2.19-1.46,3.18-2.13l.11-2.37Z" style="fill:#7e3757;"/><path d="M263.95,435.02c1.54,1.13,3.09,2.25,4.63,3.38,5.23,3.84,5.73,9.52,5.69,15.26-.04,5.09-.49,10.17-.75,15.26-1.91,3.01-3.65,6.16-5.77,9.01-4.24,5.71-10,9.44-16.64,11.74-7.51,2.61-14.45,.33-20.89-3.4-3.26-1.89-4.22-5.72-5.38-9.15-.52-2.34-1.05-4.68-1.57-7.02,.41-2.93,.39-5.99,1.31-8.75,2.44-7.36,5.11-14.79,11.24-19.99,3.83-3.24,8.25-5.76,12.41-8.61,.99-.38,1.97-.81,2.98-1.13,3.02-.96,6.01-1.6,8.82,.69,1.23,1,2.62,1.8,3.93,2.7Z" style="fill:#933f66;"/><path d="M263.95,435.02c-1.32-.89-2.7-1.7-3.93-2.7-2.81-2.29-5.8-1.65-8.82-.69-1.01,.32-1.98,.75-2.98,1.13-2.42-2.71-4.84-5.42-7.26-8.14,1.19-2.52,2.12-5.19,3.62-7.51,2.41-3.75,2.75-7.99,3.55-12.14,.4-2.07,.75-4.16,1.12-6.24,4.31,9.95,12.91,14.96,22.16,19.17,1.22,.56,2.6,.77,3.91,1.14l-.02,3.49c-1.48,1.05-3.1,1.94-4.41,3.17-2.84,2.69-5.68,5.42-6.94,9.3Z" style="fill:#71314c;"/><path d="M183.31,328.62l-.11,2.37c-.99,.66-2.09,1.39-3.18,2.13,.84-1.09,1.68-2.19,2.28-2.96-4.04,.68-8.34,1.41-12.65,2.13-.27,0-.53-.02-.8-.02-1.33-.1-2.66-.2-3.99-.29,3.06-.2,6.12-.36,9.17-.61,1.12-.09,2.26-.32,3.33-.66,2-.63,3.97-1.38,5.95-2.07Z" style="fill:#824f63;"/><path d="M202.21,400.21c.22,.39,.55,.76,.63,1.18,1.19,6.12,3.06,12,6.15,17.45,.19,.33,.08,.83,.11,1.26-4-6.04-6.05-12.75-6.9-19.88Z" style="fill:#81445c;"/><path d="M171.96,350.02c-.07,2.54-.08,5.09-.23,7.63-.12,2.07-.42,4.13-.63,6.2,.29-4.61,.58-9.22,.87-13.83Z" style="fill:#64394a;"/><path d="M171.16,364.7c.62,2.76,1.24,5.52,1.87,8.29-.62-2.76-1.24-5.52-1.87-8.29Z" style="fill:#64394a;"/><path d="M223.26,470.11c.52,2.34,1.05,4.68,1.57,7.02-.52-2.34-1.05-4.68-1.57-7.02Z" style="fill:#71354f;"/><path d="M173.42,345.41c-.33,.98-.65,1.95-.98,2.93l.98-2.93Z" style="fill:#64394a;"/><path d="M172.45,348.32c-.17,.58-.34,1.16-.52,1.73,.17-.58,.34-1.16,.52-1.73Z" style="fill:#64394a;"/><path d="M179.86,333.29l.39,.76c-.49,.11-.83,.19-1.18,.26,.26-.34,.53-.68,.79-1.02Z" style="fill:#824f63;"/><path d="M179.04,334.35l-.84,1.14,.84-1.14Z" style="fill:#824f63;"/><path d="M168.85,332.26c.27,0,.53,.02,.8,.02l-.8-.02Z" style="fill:#8d4e67;"/><path d="M290.09,417.65c-.6,1.48-1.19,2.97-1.79,4.45-1.66-.44-3.31-.93-4.99-1.28-.3-.06-.71,.39-1.07,.6-1.44,.18-2.89,.36-4.33,.54,.19-1.12,.38-2.24,.57-3.36,2.38-.56,4.76-1.11,7.14-1.67,1.49,.24,2.98,.48,4.47,.72Z" style="fill:#a09e58;"/><path d="M230.59,364.94c-2.76-.06-5.53-.11-8.29-.17,1.61-1.68,3.01-3.65,4.86-4.98,4.81-3.45,9.82-6.62,15.2-10.21,.44-3.2,.93-6.74,1.42-10.28,1.24-1.76,2.49-3.53,3.73-5.29l2.16-1.32,.16,.1c-2.66,6.02-1.58,12.37-1.68,18.62-1.1,1.26-2.2,2.53-3.29,3.79-.92-.74-1.83-1.48-3.02-2.45-3.59,3.48-7.2,6.93-10.73,10.44-.38,.38-.37,1.15-.54,1.74Z" style="fill:#a09e58;"/><path d="M258,346.42c.24-.4,.77-.89,.67-1.17-1.55-4.63-3.18-9.24-7.26-12.37-.34-.26-1.03-.07-1.56-.09l-.16-.1c.09-.84,.18-1.68,.28-2.52,.47-.91,.93-1.82,1.4-2.73,.64,.75,1.19,1.61,1.93,2.24,4.89,4.2,7.45,9.74,9.22,15.76-1.5,.32-3,.64-4.51,.97Z" style="fill:#a09e58;"/><path d="M287.45,359.46c.32,.41,.63,.83,.95,1.24-.31-.41-.63-.83-.95-1.24Z" style="fill:#7e3757;"/><path d="M227.23,291.13c-.33,1.01-.67,2.01-1,3.02-1.39,1.72-2.78,3.44-4.16,5.16-3.6,1.63-7.2,3.26-10.8,4.89l-1.3,.08-.53,.03-10.08-1.31c-.31-4.33-.66-8.66-2.91-12.78,10.14,8.45,20.36,9.17,30.79,.91Z" style="fill:#71314c;"/><path d="M193.23,321.42c-.09,.11-.17,.22-.26,.33,.09-.11,.17-.22,.26-.33Z" style="fill:#f8f2f0;"/><path d="M266.47,317.45c-1.75-2.5-3.49-5.01-5.24-7.51,2.39,1.02,4.78,2.03,7.17,3.05,.33,.33,.66,.67,.99,1l-2.92,3.47Z" style="fill:#a09e58;"/><path d="M300.02,362.62l-.33-.25c.24-.03,.4-.04,.56-.06-.08,.1-.15,.21-.23,.31Z" style="fill:#8d4e67;"/><path d="M200.32,320.13c1.72-5.73,4.58-10.72,9.43-14.41,.56-.43,1.01-1.01,1.52-1.52,3.6-1.63,7.2-3.26,10.8-4.89,1.2-.2,2.39-.41,3.58-.61,2.74,.15,5.48,.35,8.22,.44,1.41,.05,2.83-.1,4.25-.16l-.02-.03,3.68,.83,.09-.05,.09,.06-.2,1.33,2.53-.21c1.28,.28,2.56,.56,3.84,.85,.32,.33,.59,.73,.96,.99,3.3,2.38,5.03,5.51,5.26,9.65,.3,5.32,0,10.43-2.99,15.06-.47,.91-.93,1.82-1.4,2.73-1.45,.87-2.89,1.75-2.44,3.83-1.24,1.76-2.49,3.53-3.73,5.29-3.19,2.68-6.09,5.86-9.64,7.92-3.81,2.21-8.22,3.39-12.36,5.02-4.2,.73-8.26,.92-12.52-.35-4.43-1.32-10.22-8.06-10.17-13.86,.04-5.67,.53-11.33,.84-16.99,.02-.31,.25-.61,.38-.91Z" style="fill:#933f65;"/><path d="M258.67,306.64c-.58-1.27-1.15-2.54-1.73-3.81,0-.19-.02-.37-.03-.56-.09-1.61-.18-3.23-.27-4.84,.67,3.07,1.35,6.14,2.02,9.21Z" style="fill:#64394a;"/><path d="M241.96,299.79c.64-.13,1.28-.26,1.93-.39,.13,.5,.27,1.01,.4,1.51-.82,.07-1.64,.14-2.53,.21l.2-1.33Z" style="fill:#824f63;"/><path d="M256.64,297.43c.09,1.61,.18,3.23,.27,4.84-.38-1.71-.77-3.43-1.15-5.14,.26-.04,.52-.07,.78-.1,.03,.13,.07,.27,.1,.4Z" style="fill:#7b7343;"/><path d="M247.53,334.01c-.45-2.09,.99-2.96,2.44-3.83-.09,.84-.18,1.68-.28,2.52-.72,.44-1.44,.88-2.16,1.32Z" style="fill:#824f63;"/><path d="M209.96,304.28c-.18,0-.35,.02-.53,.03,.18,0,.35-.02,.53-.03Z" style="fill:#933f65;"/><path d="M225.65,298.7c4.16,.09,8.31,.18,12.47,.28-1.42,.06-2.83,.21-4.25,.16-2.74-.09-5.48-.29-8.22-.44Z" style="fill:#824f63;"/><path d="M238.1,298.95c1.23,.28,2.45,.55,3.68,.83-1.23-.28-2.45-.55-3.68-.83Z" style="fill:#824f63;"/></g><g><path d="M437.82,438.46c-1.47-.89-2.87-2-4.06-2.97-11.05-9-17.38-22.52-17.38-37.1v-103.03c3.23-1.76,5.36-5.36,5.36-9.3v-20.91c0-3.4-1.52-6.43-3.9-8.35h-6v-.69h-64.15v.68h-2.75c-2.36,1.92-3.89,4.95-3.89,8.36v20.91c0,3.95,2.13,7.54,5.36,9.31v103.03c0,12.76-5.05,25.12-13.85,33.94-2.72,2.72-5.08,4.64-7.44,6.03-53.33,31.55-60.35,103.65-59.85,151.09,1.6,.73,3.21,1.44,4.83,2.14,34.06,14.79,71.82,22.97,111.23,22.97s76.85-8.18,110.88-22.94v-.09c1.58-.69,3.16-1.38,4.73-2.09,.66-46.33-1.7-116.21-59.13-150.97Zm-2.2,4.59c-1.73-1.05-3.28-2.28-4.6-3.35-3.1-2.52-5.85-5.37-8.25-8.47,2.35,3,5.04,5.76,8.05,8.21,1.32,1.07,2.87,2.3,4.6,3.35,11.14,6.74,20.12,14.91,27.35,24.02-7.19-9-16.1-17.08-27.15-23.76Z" style="fill:#7f0239;"/><path d="M406.86,234.16h-50.93c-7.83,0-13.03,10.28-13.03,17.07,0,2.12,.77,4.06,2.04,5.53h46.6c1.8,.03,3.48,.03,5.04,0h21.26c1.27-1.47,2.05-3.41,2.05-5.54,0-6.8-5.2-17.07-13.03-17.07Zm-59.12,17.63c0-.06-.01-.11-.02-.17l.04,.03s-.01,.09-.02,.14Z" style="fill:#efa78b;"/></g><text transform="translate(190.56 188.67) rotate(-47.91)" style="fill:#7f0239; font-family:Montserrat-Bold, Montserrat; font-size:30.45px;"><tspan x="0" y="0">N</tspan></text><text transform="translate(206.81 170.82) rotate(-42.84)" style="fill:#7f0239; font-family:Montserrat-Bold, Montserrat; font-size:30.45px;"><tspan x="0" y="0">F</tspan></text><text transform="translate(220.56 157.95) rotate(-38.09)" style="fill:#7f0239; font-family:Montserrat-Bold, Montserrat; font-size:30.45px;"><tspan x="0" y="0">C</tspan></text><text transform="translate(237.81 144.46) rotate(-33.19)" style="fill:#7f0239; font-family:Montserrat-Bold, Montserrat; font-size:30.45px;"><tspan x="0" y="0">E</tspan></text><text transform="translate(254.47 133.51) rotate(-28.42)" style="fill:#7f0239; font-family:Montserrat-Bold, Montserrat; font-size:30.45px;"><tspan x="0" y="0">C</tspan></text><text transform="translate(273.52 123.13) rotate(-23.17)" style="fill:#7f0239; font-family:Montserrat-Bold, Montserrat; font-size:30.45px;"><tspan x="0" y="0">U</tspan></text><text transform="translate(295.14 113.89) rotate(-17.92)" style="fill:#7f0239; font-family:Montserrat-Bold, Montserrat; font-size:30.45px;"><tspan x="0" y="0">R</tspan></text><text transform="translate(316.05 107.15) rotate(-13)" style="fill:#7f0239; font-family:Montserrat-Bold, Montserrat; font-size:30.45px;"><tspan x="0" y="0">E</tspan></text><text transform="translate(335.7 102.78) rotate(-9.66)" style="fill:#7f0239; font-family:Montserrat-Bold, Montserrat; font-size:30.45px;"><tspan x="0" y="0"> </tspan></text><text transform="translate(344 101.36) rotate(-7.68)" style="fill:#7f0239; font-family:Montserrat-Bold, Montserrat; font-size:30.45px;"><tspan x="0" y="0"> </tspan></text><text transform="translate(352.34 100.21) rotate(-5.43)" style="fill:#7f0239; font-family:Montserrat-Bold, Montserrat; font-size:30.45px;"><tspan x="0" y="0">•</tspan></text><text transform="translate(362.98 99.22) rotate(-3.19)" style="fill:#7f0239; font-family:Montserrat-Bold, Montserrat; font-size:30.45px;"><tspan x="0" y="0"> </tspan></text><text transform="translate(371.41 98.75) rotate(-1.21)" style="fill:#7f0239; font-family:Montserrat-Bold, Montserrat; font-size:30.45px;"><tspan x="0" y="0"> </tspan></text><text transform="translate(379.61 97.96) rotate(3.83)" style="fill:#7f0239; font-family:Montserrat-Bold, Montserrat; font-size:30.45px;"><tspan x="0" y="0">W</tspan></text><text transform="translate(413.99 100.79) rotate(8.91)" style="fill:#7f0239; font-family:Montserrat-Bold, Montserrat; font-size:30.45px;"><tspan x="0" y="0">I</tspan></text><text transform="translate(423.55 102.03) rotate(12.84)" style="fill:#7f0239; font-family:Montserrat-Bold, Montserrat; font-size:30.45px;"><tspan x="0" y="0">N</tspan></text><text transform="translate(447.07 107.46) rotate(17.95)" style="fill:#7f0239; font-family:Montserrat-Bold, Montserrat; font-size:30.45px;"><tspan x="0" y="0">E</tspan></text><text transform="translate(466.16 113.82) rotate(21.25)" style="fill:#7f0239; font-family:Montserrat-Bold, Montserrat; font-size:30.45px;"><tspan x="0" y="0"> </tspan></text><text transform="translate(474.04 116.87) rotate(23.37)" style="fill:#7f0239; font-family:Montserrat-Bold, Montserrat; font-size:30.45px;"><tspan x="0" y="0">I</tspan></text><text transform="translate(482.98 120.44) rotate(27.3)" style="fill:#7f0239; font-family:Montserrat-Bold, Montserrat; font-size:30.45px;"><tspan x="0" y="0">N</tspan></text><text transform="translate(504.41 131.61) rotate(32.32)" style="fill:#7f0239; font-family:Montserrat-Bold, Montserrat; font-size:30.45px;"><tspan x="0" y="0">S</tspan></text><text transform="translate(520.49 141.93) rotate(35.68)" style="fill:#7f0239; font-family:Montserrat-Bold, Montserrat; font-size:30.45px;"><tspan x="0" y="0">I</tspan></text><text transform="translate(528.48 147.38) rotate(39.5)" style="fill:#7f0239; font-family:Montserrat-Bold, Montserrat; font-size:30.45px;"><tspan x="0" y="0">G</tspan></text><text transform="translate(546.23 161.98) rotate(44.99)" style="fill:#7f0239; font-family:Montserrat-Bold, Montserrat; font-size:30.45px;"><tspan x="0" y="0">H</tspan></text><text transform="translate(563.24 179.13) rotate(50.03)" style="fill:#7f0239; font-family:Montserrat-Bold, Montserrat; font-size:30.45px;"><tspan x="0" y="0">T</tspan></text><text transform="translate(575.01 193.12) rotate(54.38)" style="fill:#7f0239; font-family:Montserrat-Bold, Montserrat; font-size:30.45px;"><tspan x="0" y="0">S</tspan></text></svg>